HIERARCHY
ROOT SpineBase
{
  OFFSET 0.000000 0.000000 0.000000
  CHANNELS 6 Xposition Yposition Zposition Zrotation Xrotation Yrotation
  JOINT SpineMid
  {
    OFFSET -0.000000 34.118430 -0.000000
    CHANNELS 3 Zrotation Xrotation Yrotation
    JOINT SpineShoulder
    {
      OFFSET 0.361559 25.419160 -0.783508
      CHANNELS 3 Zrotation Xrotation Yrotation
      JOINT Neck
      {
        OFFSET 0.187319 8.382740 -0.560140
        CHANNELS 3 Zrotation Xrotation Yrotation
        JOINT Head
        {
          OFFSET -10.483659 -2.326691 6.930397
          CHANNELS 3 Zrotation Xrotation Yrotation
          End Site
          {
            OFFSET 0 0 0
          }
        }
      }
      JOINT ShoulderLeft
      {
        OFFSET -1.839607 -4.784852 -12.043788
        CHANNELS 3 Zrotation Xrotation Yrotation
        JOINT ElbowLeft
        {
          OFFSET 6.928661 -24.550671 -5.481034
          CHANNELS 3 Zrotation Xrotation Yrotation
          JOINT WristLeft
          {
            OFFSET 6.646225 -24.029289 -0.037277
            CHANNELS 3 Zrotation Xrotation Yrotation
            JOINT HandLeft
            {
              OFFSET 0.208401 -6.054663 1.959017
              CHANNELS 3 Zrotation Xrotation Yrotation
              JOINT HandTipLeft
              {
                OFFSET 0.949287 -7.421982 1.148799
                CHANNELS 3 Zrotation Xrotation Yrotation
                End Site
                {
                  OFFSET 0 0 0
                }
              }
              JOINT ThumbLeft
              {
                OFFSET 0.503923 -1.477329 -3.143244
                CHANNELS 3 Zrotation Xrotation Yrotation
                End Site
                {
                  OFFSET 0 0 0
                }
              }
            }
          }
        }
      }
      JOINT ShoulderRight
      {
        OFFSET 2.243103 -10.045828 -15.297314
        CHANNELS 3 Zrotation Xrotation Yrotation
        JOINT ElbowRight
        {
          OFFSET 4.301041 -21.187909 0.436949
          CHANNELS 3 Zrotation Xrotation Yrotation
          JOINT WristRight
          {
            OFFSET 4.757481 -15.755201 8.237990
            CHANNELS 3 Zrotation Xrotation Yrotation
            JOINT HandRight
            {
              OFFSET -4.483517 -5.569524 -3.313625
              CHANNELS 3 Zrotation Xrotation Yrotation
              JOINT HandTipRight
              {
                OFFSET 1.010837 -0.432798 -1.383484
                CHANNELS 3 Zrotation Xrotation Yrotation
                End Site
                {
                  OFFSET 0 0 0
                }
              }
              JOINT ThumbRight
              {
                OFFSET 3.105882 5.444102 -0.654195
                CHANNELS 3 Zrotation Xrotation Yrotation
                End Site
                {
                  OFFSET 0 0 0
                }
              }
            }
          }
        }
      }
    }
  }
  JOINT HipLeft
  {
    OFFSET -2.051578 1.959220 -8.989722
    CHANNELS 3 Zrotation Xrotation Yrotation
    JOINT KneeLeft
    {
      OFFSET 2.339555 -28.817524 5.271100
      CHANNELS 3 Zrotation Xrotation Yrotation
      JOINT AnkleLeft
      {
        OFFSET -5.599769 -33.664173 3.289856
        CHANNELS 3 Zrotation Xrotation Yrotation
        JOINT FootLeft
        {
          OFFSET 4.100008 -6.484170 -1.093289
          CHANNELS 3 Zrotation Xrotation Yrotation
          End Site
          {
            OFFSET 0 0 0
          }
        }
      }
    }
  }
  JOINT HipRight
  {
    OFFSET 2.147129 -0.824072 2.330719
    CHANNELS 3 Zrotation Xrotation Yrotation
    JOINT KneeRight
    {
      OFFSET -14.121431 -27.337921 15.019237
      CHANNELS 3 Zrotation Xrotation Yrotation
      JOINT AnkleRight
      {
        OFFSET -3.270119 -30.978164 0.686592
        CHANNELS 3 Zrotation Xrotation Yrotation
        JOINT FootRight
        {
          OFFSET -5.443516 -3.690759 -10.437810
          CHANNELS 3 Zrotation Xrotation Yrotation
          End Site
          {
            OFFSET 0 0 0
          }
        }
      }
    }
  }
}
MOTION
Frames: 9
Frame Time: 0.033333
-1.341317 67.503731 331.531881 0.000000 -0.000000 -69.650381 -0.000000 0.000000 69.650381 -0.000000 0.000000 0.000000 -0.000000 0.000000 0.000000 0.000000 0.000000 0.000000 -0.000000 0.000000 0.000000 -0.000000 0.000000 0.000000 -0.000000 0.000000 0.000000 -0.000000 0.000000 0.000000 0.000000 0.000000 0.000000 0.000000 0.000000 0.000000 -0.000000 0.000000 0.000000 -0.000000 0.000000 0.000000 -0.000000 0.000000 0.000000 -0.000000 0.000000 0.000000 0.000000 0.000000 0.000000 0.000000 0.000000 0.000000 -0.000000 0.000000 69.650381 -0.000000 0.000000 0.000000 -0.000000 0.000000 0.000000 0.000000 0.000000 0.000000 -0.000000 0.000000 69.650381 -0.000000 0.000000 0.000000 -0.000000 0.000000 0.000000 0.000000 0.000000 0.000000
-1.353764 67.689930 331.554570 -0.017905 -0.057283 -70.038623 -0.047729 0.036385 70.038629 -0.000000 0.000000 0.000000 -2.986033 -1.959052 -0.102215 0.000000 0.000000 0.000000 -0.000000 0.000000 0.000000 -0.045608 -1.318879 -0.365303 -1.671063 -4.958450 -0.457975 5.012643 6.962425 0.886459 0.000000 0.000000 0.000000 0.000000 0.000000 0.000000 0.751983 1.682468 0.345667 -0.762445 -1.677754 -0.367872 5.307891 2.496154 -5.413596 -32.635418 -43.837740 12.383153 0.000000 0.000000 0.000000 0.000000 0.000000 0.000000 -0.047729 0.036385 70.038629 -0.000000 0.000000 0.000000 0.446571 -0.943735 -0.667640 0.000000 0.000000 0.000000 -0.047729 0.036385 70.038629 -0.000000 0.000000 0.000000 -0.301202 -0.249601 1.222056 0.000000 0.000000 0.000000
-1.337710 67.837943 331.558062 -0.044123 -0.113401 -70.447915 -0.092096 0.079530 70.447935 -0.000000 0.000000 0.000000 -6.096210 -4.271299 0.630234 0.000000 0.000000 0.000000 -0.000000 0.000000 0.000000 -0.055156 -2.431578 -0.673837 -3.113068 -9.034965 -0.917491 9.352011 12.636231 0.871950 0.000000 0.000000 0.000000 0.000000 0.000000 0.000000 1.047275 3.149614 0.631502 -1.083532 -3.137336 -0.689969 10.885226 5.143524 -11.674470 -93.804437 -75.464196 -30.056877 0.000000 0.000000 0.000000 0.000000 0.000000 0.000000 -0.874457 -0.394525 70.363034 0.709410 -0.577549 0.086326 0.821841 -1.750184 -1.230306 0.000000 0.000000 0.000000 -0.092096 0.079530 70.447935 -0.000000 0.000000 0.000000 -0.538496 -0.453826 2.199269 0.000000 0.000000 0.000000
-1.293155 67.947770 331.542356 -0.078670 -0.168270 -70.876177 -0.133210 0.129455 70.876212 -0.000000 0.000000 0.000000 -9.601293 -7.274220 2.259444 0.000000 0.000000 0.000000 -0.808102 -0.707957 -0.024462 0.782261 -2.650324 -0.915201 -4.258386 -12.017342 -1.287516 12.917728 16.735377 0.358360 0.000000 0.000000 0.000000 0.000000 0.000000 0.000000 0.887191 4.410679 0.879218 -0.957518 -4.395975 -0.950135 16.604349 7.994826 -18.834445 -174.275572 -63.889741 -107.399959 0.000000 0.000000 0.000000 0.000000 0.000000 0.000000 -1.195247 -0.552689 70.753842 0.994112 -0.777828 0.125196 1.132477 -2.423007 -1.694651 0.000000 0.000000 0.000000 -0.133210 0.129455 70.876212 -0.000000 0.000000 0.000000 -0.713224 -0.608509 2.927258 0.000000 0.000000 0.000000
-1.220100 68.019411 331.507453 -0.121539 -0.221806 -71.321003 -0.171198 0.186174 71.321046 -0.000000 0.000000 0.000000 -13.808261 -11.491267 4.996323 0.000000 0.000000 0.000000 -1.089753 -0.942113 -0.031692 1.133400 -3.172355 -1.123973 -5.074087 -13.851960 -1.504485 15.565368 19.200532 -0.269385 0.000000 0.000000 0.000000 0.000000 0.000000 0.000000 0.262073 5.472521 1.105161 -0.188237 -6.360505 -1.281565 22.169444 12.085007 -27.159826 179.391712 -39.346389 -126.466345 0.000000 0.000000 0.000000 0.000000 0.000000 0.000000 -1.439982 -0.683391 71.165141 1.232646 -0.920113 0.160297 1.383851 -2.965473 -2.066052 0.000000 0.000000 0.000000 -0.171198 0.186174 71.321046 -0.000000 0.000000 0.000000 -0.826596 -0.710639 3.403227 0.000000 0.000000 0.000000
-1.118543 68.052866 331.453351 -0.172701 -0.273930 -71.779694 -0.206197 0.249692 71.779731 -0.000000 0.000000 0.000000 -19.049595 -17.791734 9.221506 0.000000 0.000000 0.000000 -1.377573 -1.175376 -0.038511 1.534456 -3.534938 -1.290012 -5.560299 -14.579362 -1.539480 17.172023 20.106036 -0.720550 0.000000 0.000000 0.000000 0.000000 0.000000 0.000000 -0.849151 6.338006 1.320837 1.308529 -8.162262 -1.366874 27.510411 16.729255 -36.911151 -152.540071 -22.750477 -151.007950 0.000000 0.000000 0.000000 0.000000 0.000000 0.000000 -1.610081 -0.785436 71.594527 1.425479 -1.005236 0.191146 1.580151 -3.380265 -2.348688 0.000000 0.000000 0.000000 -0.206197 0.249692 71.779731 -0.000000 0.000000 0.000000 -0.879491 -0.758293 3.625545 0.000000 0.000000 0.000000
-0.981950 68.080659 331.413719 -0.116266 -0.319416 -72.734366 -0.270516 0.205830 72.734528 1.013568 -0.178914 0.073316 -28.521861 -31.192400 18.097839 0.000000 0.000000 0.000000 -2.571309 -1.306016 -0.158590 1.929563 -3.643811 -1.360357 -6.162959 -12.945801 -1.429765 17.651136 18.206303 -0.416410 0.000000 0.000000 0.000000 0.000000 0.000000 0.000000 -3.947895 7.467630 1.556392 4.090210 -10.771557 -1.337834 31.582041 23.767357 -47.810524 5.161771 -60.744148 -87.539468 0.000000 0.000000 0.000000 0.000000 0.000000 0.000000 -1.885950 -1.231594 72.471068 1.857219 -1.107535 0.266950 1.589353 -3.832616 -2.630428 0.000000 0.000000 0.000000 -0.270516 0.205830 72.734528 -0.000000 0.000000 0.000000 -0.918168 -0.813937 3.820892 0.000000 0.000000 0.000000
-0.804562 68.037996 331.324808 -0.204850 -0.397237 -73.130466 -0.320698 0.311310 73.130627 -0.000000 0.000000 0.000000 -35.040792 -48.356403 28.099425 0.000000 0.000000 0.000000 -1.902753 -1.851663 -0.129610 2.434300 -3.448620 -1.391562 -6.594418 -10.929268 -1.304781 16.871409 14.893984 0.143424 0.000000 0.000000 0.000000 0.000000 0.000000 0.000000 -5.458318 7.780010 1.860976 7.446671 -13.058745 -1.085788 33.465463 34.463759 -58.567182 55.110503 -19.267106 -44.999782 0.000000 0.000000 0.000000 0.000000 0.000000 0.000000 -2.000604 -1.256672 72.845770 1.993726 -1.142745 0.290881 1.746961 -4.110761 -2.821568 0.000000 0.000000 0.000000 -0.320698 0.311310 73.130627 -0.583395 -0.871956 0.074625 -0.185725 0.186487 3.132527 0.000000 0.000000 0.000000
-0.625122 67.943452 331.249660 -0.353370 -0.493695 -72.395074 -0.363697 0.486137 72.395095 -0.000000 0.000000 0.000000 -37.059084 -61.860727 38.520035 0.000000 0.000000 0.000000 -2.050392 -2.121421 -0.180592 2.331851 -3.214306 -1.370502 -6.343299 -9.441276 -1.176024 15.247922 13.442945 0.602861 0.000000 0.000000 0.000000 0.000000 0.000000 0.000000 -8.173529 7.613921 1.954674 11.097338 -14.586796 -0.647296 47.960144 46.560473 -85.587231 57.525470 -5.280385 -10.722860 0.000000 0.000000 0.000000 0.000000 0.000000 0.000000 -2.073184 -0.708784 72.191159 0.884481 -1.673846 0.191088 3.014358 -3.737715 -2.911553 0.000000 0.000000 0.000000 -0.363697 0.486137 72.395095 -0.485398 -1.967015 0.188415 -0.991174 3.709679 1.410930 0.000000 0.000000 0.000000
